<svg width="115" height="101" viewBox="0 0 115 101" fill="none" xmlns="http://www.w3.org/2000/svg">
<path d="M36.5363 84.9323C29.5919 84.9323 23.5798 80.7388 20.4271 73.6811C18.5726 69.5289 17.7832 64.6524 18.013 58.7732C18.4752 46.9423 21.5543 34.5788 27.4361 24.26C21.7078 20.7187 14.0821 17.3373 3.93524 14.6399C1.10974 13.8887 -0.572224 10.989 0.17902 8.16354C0.929734 5.33698 3.83094 3.6529 6.65486 4.40679C14.9365 6.60758 24.7668 10.1076 33.4958 15.587C39.8525 8.15878 48.2189 2.71319 58.7009 0.774459C69.43 -1.21033 80.6611 0.661694 89.5135 5.90928C100.933 12.6805 108.792 24.4543 111.075 38.2128C111.768 42.3946 113.512 50.301 114.637 53.8475C115.521 56.6349 113.978 59.6108 111.191 60.4949C108.406 61.3759 105.428 59.8363 104.544 57.0489C103.271 53.037 101.394 44.56 100.629 39.945C98.8847 29.434 92.7112 20.1146 84.114 15.0174C77.4338 11.0579 68.8726 9.66127 60.6269 11.186C53.0191 12.5932 46.826 16.5162 41.9813 21.9517C45.2367 24.891 48.1284 28.229 50.4546 32.0207C54.6032 38.7819 56.8241 46.9884 57.0576 56.4136C57.2095 62.5914 56.3947 67.7098 54.5661 72.0606C51.3171 79.7943 44.3155 84.8465 36.7295 84.9318C36.6654 84.9318 36.6003 84.9323 36.5363 84.9323ZM35.9052 30.7628C31.3675 39.26 28.9751 49.4295 28.5934 59.1867C28.4282 63.4025 28.9195 66.7309 30.0954 69.3627C31.5311 72.5768 33.8182 74.3429 36.541 74.3434C36.5643 74.3434 36.5876 74.3434 36.6114 74.3434C39.9754 74.3058 43.1916 71.7996 44.8052 67.9586C46.0425 65.0151 46.5878 61.325 46.4729 56.6746C46.2892 49.2458 44.5453 42.635 41.4307 37.5579C40.1501 35.4714 38.3723 33.1521 35.9052 30.7628Z" fill="#26D961"/>
<path d="M79.84 101.004C64.6658 101.004 56.7939 86.8279 56.4366 86.1682C55.0431 83.5979 55.9982 80.3844 58.5691 78.9915C61.133 77.6017 64.3349 78.5483 65.7342 81.1022C66.0079 81.5935 71.9686 92.0363 82.4919 90.1743C93.1755 88.2864 95.1031 76.0553 95.1211 75.932C95.5489 73.0392 98.2457 71.0423 101.132 71.4684C104.025 71.8962 106.023 74.5872 105.596 77.4794C105.475 78.291 102.449 97.3993 84.3342 100.601C82.7709 100.877 81.2726 101.004 79.8395 101.004H79.84Z" fill="#26D961"/>
</svg>
